HIERARCHY
ROOT Hips
{
  OFFSET 5.80788e-005 67.184 3.4734
  CHANNELS 6 Xposition Yposition Zposition Zrotation Xrotation Yrotation
  JOINT Chest
  {
    OFFSET 0 8.7983 -4.7612
    CHANNELS 6 Xposition Yposition Zposition Zrotation Xrotation Yrotation
    JOINT Chest2
    {
      OFFSET 0 8.0291 0.4195
      CHANNELS 6 Xposition Yposition Zposition Zrotation Xrotation Yrotation
      JOINT Chest3
      {
        OFFSET 0 9.9351 -2.2114
        CHANNELS 6 Xposition Yposition Zposition Zrotation Xrotation Yrotation
        JOINT Neck
        {
          OFFSET 0 22.3885 -0.4656
          CHANNELS 6 Xposition Yposition Zposition Zrotation Xrotation Yrotation
          JOINT Head
          {
            OFFSET -0.0001 12.643 3.4389
            CHANNELS 6 Xposition Yposition Zposition Zrotation Xrotation Yrotation
            End Site
            {
              OFFSET 0.0001 17.6655 0.5274
            }
          }
        }
        JOINT LeftCollar
        {
          OFFSET 2.2603 21.606 7.4023
          CHANNELS 6 Xposition Yposition Zposition Zrotation Xrotation Yrotation
          JOINT LeftShoulder
          {
            OFFSET 13.5163 -1.1332 -5.0146
            CHANNELS 6 Xposition Yposition Zposition Zrotation Xrotation Yrotation
            JOINT LeftElbow
            {
              OFFSET -0.0995 -28.05 -0.2431
              CHANNELS 6 Xposition Yposition Zposition Zrotation Xrotation Yrotation
              JOINT LeftWrist
              {
                OFFSET 0.0679 -23.3996 -0.1402
                CHANNELS 6 Xposition Yposition Zposition Zrotation Xrotation Yrotation
                JOINT LeftFinger1
                {
                  OFFSET 0.7932 -9.069 2.5189
                  CHANNELS 6 Xposition Yposition Zposition Zrotation Xrotation Yrotation
                  JOINT LeftFinger11
                  {
                    OFFSET -0.8272 -3.3923 0.5977
                    CHANNELS 6 Xposition Yposition Zposition Zrotation Xrotation Yrotation
                    JOINT LeftFinger12
                    {
                      OFFSET -0.5649 -2.3158 0.4082
                      CHANNELS 6 Xposition Yposition Zposition Zrotation Xrotation Yrotation
                      End Site
                      {
                        OFFSET -0.4919 -1.6479 0.2673
                      }
                    }
                  }
                }
                JOINT LeftFinger2
                {
                  OFFSET 0.9159 -9.2044 0.2193
                  CHANNELS 6 Xposition Yposition Zposition Zrotation Xrotation Yrotation
                  JOINT LeftFinger21
                  {
                    OFFSET 0.0117 -4.1944 -0.0248
                    CHANNELS 6 Xposition Yposition Zposition Zrotation Xrotation Yrotation
                    JOINT LeftFinger22
                    {
                      OFFSET 0.0071 -2.3249 -0.0142
                      CHANNELS 6 Xposition Yposition Zposition Zrotation Xrotation Yrotation
                      End Site
                      {
                        OFFSET -0.1475 -2.0882 0.0028
                      }
                    }
                  }
                }
                JOINT LeftFinger3
                {
                  OFFSET 0.6113 -8.7231 -2.0637
                  CHANNELS 6 Xposition Yposition Zposition Zrotation Xrotation Yrotation
                  JOINT LeftFinger31
                  {
                    OFFSET -0.1927 -3.8059 -0.2383
                    CHANNELS 6 Xposition Yposition Zposition Zrotation Xrotation Yrotation
                    JOINT LeftFinger32
                    {
                      OFFSET -0.1091 -2.1688 -0.1362
                      CHANNELS 6 Xposition Yposition Zposition Zrotation Xrotation Yrotation
                      End Site
                      {
                        OFFSET -0.2358 -1.9176 -0.0906
                      }
                    }
                  }
                }
                JOINT LeftFinger4
                {
                  OFFSET -0.6151 -8.0947 -3.5641
                  CHANNELS 6 Xposition Yposition Zposition Zrotation Xrotation Yrotation
                  JOINT LeftFinger41
                  {
                    OFFSET -0.4882 -2.341 -0.6462
                    CHANNELS 6 Xposition Yposition Zposition Zrotation Xrotation Yrotation
                    JOINT LeftFinger42
                    {
                      OFFSET -0.3575 -1.7167 -0.4742
                      CHANNELS 6 Xposition Yposition Zposition Zrotation Xrotation Yrotation
                      End Site
                      {
                        OFFSET -0.4187 -1.5237 -0.3496
                      }
                    }
                  }
                }
                JOINT LeftFinger0
                {
                  OFFSET -1.42 -1.8761 1.4223
                  CHANNELS 6 Xposition Yposition Zposition Zrotation Xrotation Yrotation
                  JOINT LeftFinger01
                  {
                    OFFSET -1.1471 -3.4929 2.6334
                    CHANNELS 6 Xposition Yposition Zposition Zrotation Xrotation Yrotation
                    JOINT LeftFinger02
                    {
                      OFFSET -0.823 -2.3 1.6571
                      CHANNELS 6 Xposition Yposition Zposition Zrotation Xrotation Yrotation
                      End Site
                      {
                        OFFSET -0.5822 -1.6914 1.1582
                      }
                    }
                  }
                }
              }
            }
          }
        }
        JOINT RightCollar
        {
          OFFSET -2.2603 21.606 7.4023
          CHANNELS 6 Xposition Yposition Zposition Zrotation Xrotation Yrotation
          JOINT RightShoulder
          {
            OFFSET -13.5187 -1.1334 -5.0155
            CHANNELS 6 Xposition Yposition Zposition Zrotation Xrotation Yrotation
            JOINT RightElbow
            {
              OFFSET 0.0994 -28.0499 -0.2431
              CHANNELS 6 Xposition Yposition Zposition Zrotation Xrotation Yrotation
              JOINT RightWrist
              {
                OFFSET -0.0679 -23.3996 -0.1402
                CHANNELS 6 Xposition Yposition Zposition Zrotation Xrotation Yrotation
                JOINT RightFinger1
                {
                  OFFSET -0.7932 -9.0691 2.5189
                  CHANNELS 6 Xposition Yposition Zposition Zrotation Xrotation Yrotation
                  JOINT RightFinger11
                  {
                    OFFSET 0.8272 -3.3923 0.5977
                    CHANNELS 6 Xposition Yposition Zposition Zrotation Xrotation Yrotation
                    JOINT RightFinger12
                    {
                      OFFSET 0.565 -2.3158 0.4082
                      CHANNELS 6 Xposition Yposition Zposition Zrotation Xrotation Yrotation
                      End Site
                      {
                        OFFSET 0.4919 -1.6479 0.2673
                      }
                    }
                  }
                }
                JOINT RightFinger2
                {
                  OFFSET -0.916 -9.2044 0.2193
                  CHANNELS 6 Xposition Yposition Zposition Zrotation Xrotation Yrotation
                  JOINT RightFinger21
                  {
                    OFFSET -0.0117 -4.1944 -0.0248
                    CHANNELS 6 Xposition Yposition Zposition Zrotation Xrotation Yrotation
                    JOINT RightFinger22
                    {
                      OFFSET -0.0071 -2.3249 -0.0142
                      CHANNELS 6 Xposition Yposition Zposition Zrotation Xrotation Yrotation
                      End Site
                      {
                        OFFSET 0.1475 -2.0882 0.0028
                      }
                    }
                  }
                }
                JOINT RightFinger3
                {
                  OFFSET -0.6113 -8.7231 -2.0637
                  CHANNELS 6 Xposition Yposition Zposition Zrotation Xrotation Yrotation
                  JOINT RightFinger31
                  {
                    OFFSET 0.1927 -3.8059 -0.2383
                    CHANNELS 6 Xposition Yposition Zposition Zrotation Xrotation Yrotation
                    JOINT RightFinger32
                    {
                      OFFSET 0.1091 -2.1688 -0.1362
                      CHANNELS 6 Xposition Yposition Zposition Zrotation Xrotation Yrotation
                      End Site
                      {
                        OFFSET 0.2358 -1.9176 -0.0906
                      }
                    }
                  }
                }
                JOINT RightFinger4
                {
                  OFFSET 0.6151 -8.0947 -3.564
                  CHANNELS 6 Xposition Yposition Zposition Zrotation Xrotation Yrotation
                  JOINT RightFinger41
                  {
                    OFFSET 0.4882 -2.341 -0.6462
                    CHANNELS 6 Xposition Yposition Zposition Zrotation Xrotation Yrotation
                    JOINT RightFinger42
                    {
                      OFFSET 0.3574 -1.7166 -0.4742
                      CHANNELS 6 Xposition Yposition Zposition Zrotation Xrotation Yrotation
                      End Site
                      {
                        OFFSET 0.4187 -1.5237 -0.3496
                      }
                    }
                  }
                }
                JOINT RightFinger0
                {
                  OFFSET 1.4199 -1.8761 1.4221
                  CHANNELS 6 Xposition Yposition Zposition Zrotation Xrotation Yrotation
                  JOINT RightFinger01
                  {
                    OFFSET 1.1472 -3.4929 2.6336
                    CHANNELS 6 Xposition Yposition Zposition Zrotation Xrotation Yrotation
                    JOINT RightFinger02
                    {
                      OFFSET 0.8229 -2.3 1.6571
                      CHANNELS 6 Xposition Yposition Zposition Zrotation Xrotation Yrotation
                      End Site
                      {
                        OFFSET 0.5822 -1.6914 1.1582
                      }
                    }
                  }
                }
              }
            }
          }
        }
      }
    }
  }
  JOINT RightHip
  {
    OFFSET -9.412 3.9771 -0.7758
    CHANNELS 6 Xposition Yposition Zposition Zrotation Xrotation Yrotation
    JOINT RightKnee
    {
      OFFSET -0.7531 -40.938 0
      CHANNELS 6 Xposition Yposition Zposition Zrotation Xrotation Yrotation
      JOINT RightAnkle
      {
        OFFSET 0 -40.1986 0
        CHANNELS 6 Xposition Yposition Zposition Zrotation Xrotation Yrotation
        JOINT RightToe
        {
          OFFSET 0 -4.4182 9.239
          CHANNELS 6 Xposition Yposition Zposition Zrotation Xrotation Yrotation
          End Site
          {
            OFFSET 0 0 6.1981
          }
        }
      }
    }
  }
  JOINT LeftHip
  {
    OFFSET 9.4119 3.9773 -0.7758
    CHANNELS 6 Xposition Yposition Zposition Zrotation Xrotation Yrotation
    JOINT LeftKnee
    {
      OFFSET 0.7532 -40.9383 0
      CHANNELS 6 Xposition Yposition Zposition Zrotation Xrotation Yrotation
      JOINT LeftAnkle
      {
        OFFSET 0 -40.1986 0
        CHANNELS 6 Xposition Yposition Zposition Zrotation Xrotation Yrotation
        JOINT LeftToe
        {
          OFFSET 0 -4.4182 9.239
          CHANNELS 6 Xposition Yposition Zposition Zrotation Xrotation Yrotation
          End Site
          {
            OFFSET 0 0 6.1981
          }
        }
      }
    }
  }
}
MOTION
Frames:	4
Frame Time:	0.0333333
5.80788e-005 67.184 3.4734 0 0 -0 0 8.7983 -4.7612 0 0 -0 0 8.0291 0.4195 0 0 -0 0 9.9351 -2.2114 0 0 -0 0 22.3885 -0.4656 0 0 -0 -0.0001 12.643 3.4389 0 0 -0 2.2603 21.606 7.4023 0 0 -12.5014 13.5163 -1.1332 -5.0146 88.1196 14.2451 10.6914 -0.0995 -28.05 -0.2431 -0.00160068 -0.00239207 0.000740045 0.0679 -23.3996 -0.1402 -8.4365e-005 7.00714e-005 -9.52055e-007 0.7932 -9.069 2.5189 9.93923e-017 -1.98785e-016 -1.59028e-015 -0.8272 -3.3923 0.5977 9.93923e-017 -5.96354e-016 -1.59028e-015 -0.5649 -2.3158 0.4082 -9.93923e-017 -5.96354e-016 -1.59028e-015 0.9159 -9.2044 0.2193 9.93923e-017 -1.98785e-016 -1.59028e-015 0.0117 -4.1944 -0.0248 -0.0128176 0.00232552 8.52707e-005 0.0071 -2.3249 -0.0142 9.93923e-017 5.96354e-016 -0 0.6113 -8.7231 -2.0637 9.93923e-017 -1.98785e-016 -1.59028e-015 -0.1927 -3.8059 -0.2383 -0.0160551 0.00299681 0.000857156 -0.1091 -2.1688 -0.1362 -2.48481e-016 0 3.18055e-015 -0.6151 -8.0947 -3.5641 9.93923e-017 -1.98785e-016 -1.59028e-015 -0.4882 -2.341 -0.6462 -0.0125865 0.0031206 0.00282719 -0.3575 -1.7167 -0.4742 0 1.98785e-016 -0 -1.42 -1.8761 1.4223 9.93923e-017 -1.98785e-016 -1.59028e-015 -1.1471 -3.4929 2.6334 9.93923e-017 -5.96354e-016 -1.59028e-015 -0.823 -2.3 1.6571 -9.93923e-017 -5.96354e-016 -1.59028e-015 -2.2603 21.606 7.4023 -0.865644 0.16582 7.03859 -13.5187 -1.1334 -5.0155 -88.0329 10.2057 -10.5567 0.0994 -28.0499 -0.2431 0.0015593 -0.00248883 -0.000788628 -0.0679 -23.3996 -0.1402 7.87605e-005 4.10553e-005 1.24965e-005 -0.7932 -9.0691 2.5189 -3.97569e-016 -7.95139e-016 3.18055e-015 0.8272 -3.3923 0.5977 -1.98785e-016 -3.97569e-016 3.18055e-015 0.565 -2.3158 0.4082 -1.98785e-016 0 3.18055e-015 -0.916 -9.2044 0.2193 -3.97569e-016 -7.95139e-016 3.18055e-015 -0.0117 -4.1944 -0.0248 0.0129473 0.00231697 -8.70038e-005 -0.0071 -2.3249 -0.0142 9.93923e-017 -7.95139e-016 1.59028e-015 -0.6113 -8.7231 -2.0637 -3.97569e-016 -7.95139e-016 3.18055e-015 0.1927 -3.8059 -0.2383 0.0163314 0.00303369 -0.000872333 0.1091 -2.1688 -0.1362 3.97569e-016 7.95139e-016 -3.18055e-015 0.6151 -8.0947 -3.564 -3.97569e-016 -7.95139e-016 3.18055e-015 0.4882 -2.341 -0.6462 0.0145763 0.00367772 -0.00326275 0.3574 -1.7166 -0.4742 9.93923e-017 -3.97569e-016 -0 1.4199 -1.8761 1.4221 -3.97569e-016 -7.95139e-016 3.18055e-015 1.1472 -3.4929 2.6336 -1.98785e-016 -3.97569e-016 3.18055e-015 0.8229 -2.3 1.6571 -1.98785e-016 0 3.18055e-015 -9.412 3.9771 -0.7758 3.42485 1.36937 -0.0640303 -0.7531 -40.938 0 0.000136572 0.69354 0.00145564 1.77636e-015 -40.1986 -1.11022e-016 -3.42573 -2.06297 -0.0607933 8.88178e-016 -4.4182 9.239 -3.19502e-024 0 -1.48106e-024 9.4119 3.9773 -0.7758 -3.42498 1.36123 0.0639712 0.7532 -40.9383 2.22045e-016 -6.769e-005 0.712612 -0.0012277 8.88179e-016 -40.1986 0 3.42582 -2.07388 0.0612819 -8.88178e-016 -4.4182 9.239 2.55305e-023 0 -2.31416e-026 
-8.43851 35.0772 3.75468 -1.08193e-006 -43.7893 -4.85429e-008 0 8.7983 -4.7612 -2.92225 6.38247 -1.59007 0 8.0291 0.4195 -5.71823 12.8361 -2.87556 0 9.9351 -2.2114 -5.71825 12.8362 -2.87557 3.55271e-015 22.3885 -0.4656 -13.244 -0.342896 3.68653 -0.0001 12.643 3.4389 -0.64871 -0.943058 14.2287 2.2603 21.606 7.4023 -13.8149 5.22607 -15.6887 13.5163 -1.1332 -5.0146 65.5996 14.2265 52.3505 -0.0995 -28.05 -0.2431 -6.30457 -3.07493 -30.4784 0.0679 -23.3996 -0.1402 32.3987 -19.2395 -10.8372 0.7932 -9.06901 2.5189 -2.38542e-015 -3.18055e-015 4.77083e-015 -0.8272 -3.3923 0.5977 -5.22443e-007 -3.00566e-006 2.22115e-006 -0.5649 -2.3158 0.4082 4.51397e-007 3.64107e-007 7.08774e-007 0.9159 -9.20441 0.2193 -2.38542e-015 -3.18055e-015 4.77083e-015 0.0117 -4.1944 -0.0248 -0.0128286 0.00233007 8.10844e-005 0.0071 -2.3249 -0.0142 7.95139e-015 0 -4.77083e-015 0.6113 -8.72311 -2.0637 -2.38542e-015 -3.18055e-015 4.77083e-015 -0.1927 -3.8059 -0.2383 -0.0160452 0.00298838 0.000860411 -0.1091 -2.1688 -0.1362 1.49608e-006 3.24794e-006 -3.73343e-006 -0.6151 -8.09471 -3.5641 -2.38542e-015 -3.18055e-015 4.77083e-015 -0.4882 -2.341 -0.6462 -0.0125669 0.00311883 0.00282721 -0.3575 -1.7167 -0.4742 4.51392e-007 2.24136e-006 7.08791e-007 -1.42 -1.8761 1.4223 -2.38542e-015 -3.18055e-015 4.77083e-015 -1.1471 -3.4929 2.6334 -5.22443e-007 -3.00566e-006 2.22115e-006 -0.823 -2.3 1.6571 4.51397e-007 3.64107e-007 7.08774e-007 -2.2603 21.606 7.4023 15.492 -18.0262 -7.1759 -13.5187 -1.1334 -5.0155 -74.9267 17.3614 14.1611 0.0994 -28.0499 -0.2431 -36.2166 -27.3012 -3.37027 -0.0679 -23.3996 -0.1402 -0.331711 -4.33285 4.2397 -0.7932 -9.06911 2.5189 3.06736e-007 -1.29095e-007 -1.09619e-006 0.8272 -3.3923 0.5977 5.59331e-007 2.97943e-007 -1.75303e-007 0.565 -2.3158 0.4082 -5.35686e-007 -4.0375e-007 -1.10188e-006 -0.916 -9.20441 0.2193 3.06736e-007 -1.29095e-007 -1.09619e-006 -0.0117 -4.1944 -0.0248 0.0129591 0.00231827 -8.66526e-005 -0.0071 -2.3249 -0.0142 8.69683e-017 1.98785e-016 -7.95139e-016 -0.6113 -8.72311 -2.0637 3.06736e-007 -1.29095e-007 -1.09619e-006 0.1927 -3.8059 -0.2383 0.0163753 0.0030425 -0.000875617 0.1091 -2.1688 -0.1362 1.14301e-015 1.98785e-016 -7.95139e-016 0.6151 -8.0947 -3.564 3.06736e-007 -1.29095e-007 -1.09619e-006 0.4882 -2.341 -0.6462 0.0145443 0.00366701 -0.00325524 0.3574 -1.7166 -0.4742 5.09386e-016 5.96354e-016 -7.95139e-016 1.4199 -1.8761 1.4221 3.06736e-007 -1.29095e-007 -1.09619e-006 1.1472 -3.4929 2.6336 5.59331e-007 2.97943e-007 -1.75303e-007 0.8229 -2.3 1.6571 -5.35686e-007 -4.0375e-007 -1.10188e-006 -9.412 3.9771 -0.7758 -26.6613 -18.0468 -25.2962 -0.7531 -40.938 0 -6.11601 55.3342 5.27243 -3.55271e-015 -40.1986 0 -17.8036 8.35049 29.7465 0 -4.4182 9.239 -1.73937e-015 0 -7.95139e-016 9.4119 3.9773 -0.7758 -9.42356 -41.2368 6.66853 0.7532 -40.9383 0 4.78389 43.6986 -5.23382 1.77636e-015 -40.1986 7.10543e-015 1.13257 19.959 -11.7128 0 -4.4182 9.239 -1.57347e-006 2.86976e-006 6.50499e-007 
-15.806 8.45924 0.0313692 3.33058e-006 -82.5084 2.65365e-006 -1.77636e-015 8.7983 -4.7612 -5.21285 11.726 -3.67885 0 8.0291 0.4195 -9.95825 23.7244 -6.43993 0 9.9351 -2.2114 -9.95822 23.7243 -6.43993 -3.55271e-015 22.3885 -0.4656 -24.9177 -0.643302 6.94646 -0.0001 12.643 3.4389 -0.845931 -1.6361 26.8181 2.2603 21.606 7.4023 -25.554 9.81312 -18.5565 13.5163 -1.1332 -5.0146 46.6686 12.84 88.399 -0.0995 -28.05 -0.2431 -11.8438 -6.37314 -57.2116 0.0679 -23.3996 -0.1402 63.6268 -34.457 -17.7204 0.7932 -9.069 2.5189 -1.76556e-031 6.36111e-015 1.59028e-015 -0.8272 -3.3923 0.5977 3.18055e-015 -3.18055e-015 -0 -0.5649 -2.3158 0.4082 -3.18055e-015 1.27222e-014 1.59028e-015 0.9159 -9.2044 0.2193 -1.76556e-031 6.36111e-015 1.59028e-015 0.0117 -4.1944 -0.0248 -0.012816 0.00231992 7.43239e-005 0.0071 -2.3249 -0.0142 -3.18055e-015 3.18055e-015 -3.18055e-015 0.6113 -8.7231 -2.0637 -1.76556e-031 6.36111e-015 1.59028e-015 -0.1927 -3.8059 -0.2383 -0.0160438 0.00298629 0.00085917 -0.1091 -2.1688 -0.1362 -9.54166e-015 0 1.59028e-015 -0.6151 -8.0947 -3.5641 -1.76556e-031 6.36111e-015 1.59028e-015 -0.4882 -2.341 -0.6462 -0.0125737 0.00311753 0.00281514 -0.3575 -1.7167 -0.4742 3.18055e-015 -6.36111e-015 1.59028e-015 -1.42 -1.8761 1.4223 -1.76556e-031 6.36111e-015 1.59028e-015 -1.1471 -3.4929 2.6334 3.18055e-015 -3.18055e-015 -0 -0.823 -2.3 1.6571 -3.18055e-015 1.27222e-014 1.59028e-015 -2.2603 21.606 7.4023 21.6249 -31.3254 -23.1386 -13.5187 -1.1334 -5.0155 -63.0344 22.8162 36.2938 0.0994 -28.0499 -0.2431 -73.317 -48.4503 -9.91571 -0.0679 -23.3996 -0.1402 -0.622484 -8.17873 8.00559 -0.7932 -9.0691 2.5189 1.59028e-015 4.77083e-015 -1.59028e-015 0.8272 -3.3923 0.5977 2.38542e-015 3.18055e-015 -7.95139e-016 0.565 -2.3158 0.4082 1.78906e-015 1.59028e-015 -0 -0.916 -9.2044 0.2193 1.59028e-015 4.77083e-015 -1.59028e-015 -0.0117 -4.1944 -0.0248 0.0129426 0.0023161 -8.6228e-005 -0.0071 -2.3249 -0.0142 1.39149e-015 0 -7.95139e-016 -0.6113 -8.7231 -2.0637 1.59028e-015 4.77083e-015 -1.59028e-015 0.1927 -3.8059 -0.2383 0.0163289 0.00303622 -0.000871947 0.1091 -2.1688 -0.1362 -1.32417e-031 -4.77083e-015 -1.59028e-015 0.6151 -8.0947 -3.564 1.59028e-015 4.77083e-015 -1.59028e-015 0.4882 -2.341 -0.6462 0.0145964 0.003686 -0.00326526 0.3574 -1.7166 -0.4742 1.39149e-015 -1.69091e-006 7.95139e-016 1.4199 -1.8761 1.4221 1.59028e-015 4.77083e-015 -1.59028e-015 1.1472 -3.4929 2.6336 2.38542e-015 3.18055e-015 -7.95139e-016 0.8229 -2.3 1.6571 1.78906e-015 1.59028e-015 -0 -9.412 3.9771 -0.7758 -65.7927 -25.6436 -51.7293 -0.7531 -40.938 1.77636e-015 -148.803 76.788 144.356 -8.88179e-015 -40.1986 0 -40.3297 10.0595 56.7548 -7.10543e-015 -4.4182 9.239 1.19157e-008 6.32024e-010 -2.12843e-007 9.4119 3.9773 -0.7758 15.0002 -75.2103 38.5488 0.7532 -40.9383 1.33227e-015 37.4839 75.6253 -35.5126 -1.77636e-015 -40.1986 7.10543e-015 10.0799 39.0553 -27.7986 -1.77636e-015 -4.4182 9.239 -2.27507e-006 2.28576e-006 -1.90268e-006 
-18.4555 -1.3883 -2.37178 180 -83.383 180 0 8.7983 -4.7612 -5.93532 13.5702 -4.62405 0 8.0291 0.4195 -11.1937 27.5219 -8.09456 0 9.9351 -2.2114 -11.1937 27.5217 -8.09452 -3.55271e-015 22.3885 -0.4656 -29.1627 -0.751595 8.13439 -0.0001 12.643 3.4389 -0.840444 -1.83232 31.408 2.2603 21.606 7.4023 -29.7942 11.5001 -19.547 13.5163 -1.1332 -5.0146 40.0336 12.1361 101.272 -0.0995 -28.05 -0.2431 -13.8526 -7.68377 -66.8973 0.0679 -23.3996 -0.1402 75.9345 -39.3413 -19.496 0.7932 -9.069 2.5189 -8.82781e-032 3.18055e-015 1.59028e-015 -0.8272 -3.3923 0.5977 3.18055e-015 -3.18055e-015 -1.59028e-015 -0.5649 -2.3158 0.4082 -6.36111e-015 0 -1.59028e-015 0.9159 -9.2044 0.2193 -8.82781e-032 3.18055e-015 1.59028e-015 0.0117 -4.1944 -0.0248 -0.0128085 0.00231509 8.76222e-005 0.0071 -2.3249 -0.0142 3.53113e-031 -6.36111e-015 3.18055e-015 0.6113 -8.7231 -2.0637 -8.82781e-032 3.18055e-015 1.59028e-015 -0.1927 -3.8059 -0.2383 -0.0160487 0.00299339 0.000862381 -0.1091 -2.1688 -0.1362 0 0 -3.18055e-015 -0.6151 -8.0947 -3.5641 -8.82781e-032 3.18055e-015 1.59028e-015 -0.4882 -2.341 -0.6462 -0.0126172 0.00310918 0.00283343 -0.3575 -1.7167 -0.4742 -3.18055e-015 -3.18055e-015 -0 -1.42 -1.8761 1.4223 -8.82781e-032 3.18055e-015 1.59028e-015 -1.1471 -3.4929 2.6334 3.18055e-015 -3.18055e-015 -1.59028e-015 -0.823 -2.3 1.6571 -6.36111e-015 0 -1.59028e-015 -2.2603 21.606 7.4023 21.6695 -34.8503 -30.2657 -13.5187 -1.1334 -5.0155 -58.6032 24.6104 44.4107 0.0994 -28.0499 -0.2431 -88.871 -55.1156 -13.7685 -0.0679 -23.3996 -0.1402 -0.727925 -9.58342 9.38136 -0.7932 -9.0691 2.5189 -1.12825e-006 1.12122e-006 -7.30961e-007 0.8272 -3.3923 0.5977 -0 -3.18055e-015 -0 0.565 -2.3158 0.4082 -1.66064e-007 1.57785e-006 3.61596e-006 -0.916 -9.2044 0.2193 -1.12825e-006 1.12122e-006 -7.30961e-007 -0.0117 -4.1944 -0.0248 0.0129334 0.00231882 -8.44888e-005 -0.0071 -2.3249 -0.0142 1.00041e-007 1.22239e-006 -3.68683e-007 -0.6113 -8.7231 -2.0637 -1.12825e-006 1.12122e-006 -7.30961e-007 0.1927 -3.8059 -0.2383 0.0163296 0.00303749 -0.000872429 0.1091 -2.1688 -0.1362 -5.22748e-007 1.59858e-006 -1.60422e-006 0.6151 -8.0947 -3.564 -1.12825e-006 1.12122e-006 -7.30961e-007 0.4882 -2.341 -0.6462 0.0145983 0.00368328 -0.00326754 0.3574 -1.7166 -0.4742 -8.67174e-007 1.72302e-006 -5.98366e-007 1.4199 -1.8761 1.4221 -1.12825e-006 1.12122e-006 -7.30961e-007 1.1472 -3.4929 2.6336 -0 -3.18055e-015 -0 0.8229 -2.3 1.6571 -1.66064e-007 1.57785e-006 3.61596e-006 -9.412 3.9771 -0.7758 -81.9167 -25.1456 -61.5581 -0.7531 -40.938 -4.44089e-016 -165.72 61.3618 159.384 1.77636e-015 -40.1986 0 -49.4474 7.71394 66.1565 7.10543e-015 -4.4182 9.239 -5.96354e-016 1.19271e-015 -3.97569e-016 9.4119 3.9773 -0.7758 73.1133 -79.2092 98.5867 0.7532 -40.9383 4.44089e-016 93.8091 79.819 -90.3762 -1.77636e-015 -40.1986 -7.10543e-015 17.3234 44.8296 -36.6414 0 -4.4182 9.239 -6.36111e-015 -1.14628e-007 -1.59028e-015 
